<svg width="195" height="123" viewBox="0 0 195 123" fill="none" xmlns="http://www.w3.org/2000/svg">
<path d="M59.1258 35.8484C60.1511 35.8484 60.9823 34.9831 60.9823 33.9157C60.9823 32.8483 60.1511 31.9829 59.1258 31.9829C58.1005 31.9829 57.2693 32.8483 57.2693 33.9157C57.2693 34.9831 58.1005 35.8484 59.1258 35.8484Z" fill="white"/>
<path d="M71.5088 35.8484C72.5341 35.8484 73.3653 34.9831 73.3653 33.9157C73.3653 32.8483 72.5341 31.9829 71.5088 31.9829C70.4834 31.9829 69.6522 32.8483 69.6522 33.9157C69.6522 34.9831 70.4834 35.8484 71.5088 35.8484Z" fill="white"/>
<path d="M65.3266 35.8484C66.3519 35.8484 67.1831 34.9831 67.1831 33.9157C67.1831 32.8483 66.3519 31.9829 65.3266 31.9829C64.3012 31.9829 63.47 32.8483 63.47 33.9157C63.47 34.9831 64.3012 35.8484 65.3266 35.8484Z" fill="white"/>
<path d="M78.9348 61.96L84.5044 56.1617C84.854 55.7978 85.0504 55.3042 85.0504 54.7895C85.0504 54.2748 84.854 53.7812 84.5044 53.4172C84.1548 53.0533 83.6807 52.8488 83.1863 52.8488C82.6919 52.8488 82.2177 53.0533 81.8681 53.4172L74.9619 60.6264C74.6161 60.9885 74.422 61.4784 74.422 61.989C74.422 62.4996 74.6161 62.9894 74.9619 63.3516L81.8681 70.5607C82.0407 70.7419 82.2461 70.8857 82.4723 70.9838C82.6985 71.0819 82.9412 71.1324 83.1863 71.1324C83.4313 71.1324 83.674 71.0819 83.9002 70.9838C84.1265 70.8857 84.3318 70.7419 84.5044 70.5607C84.8502 70.1986 85.0442 69.7087 85.0442 69.1981C85.0442 68.6875 84.8502 68.1977 84.5044 67.8356L78.9348 61.96Z" fill="white"/>
<path d="M105.52 70.522C105.868 70.882 106.339 71.084 106.829 71.084C107.319 71.084 107.79 70.882 108.138 70.522L115.063 63.4095C115.408 63.0473 115.603 62.5575 115.603 62.0469C115.603 61.5363 115.408 61.0464 115.063 60.6843L108.138 53.4751C107.788 53.1137 107.315 52.9117 106.822 52.9136C106.33 52.9154 105.858 53.1208 105.511 53.4848C105.164 53.8487 104.97 54.3413 104.971 54.8542C104.973 55.3671 105.171 55.8583 105.52 56.2196L111.09 62.0179L105.52 67.8161C105.18 68.1774 104.989 68.6632 104.989 69.1691C104.989 69.675 105.18 70.1607 105.52 70.522Z" fill="white"/>
<path d="M99.3565 54.0357C99.1446 53.9079 98.9106 53.825 98.6678 53.7918C98.425 53.7586 98.1783 53.7757 97.9419 53.8422C97.7054 53.9086 97.484 54.0231 97.2903 54.1791C97.0966 54.335 96.9344 54.5293 96.8131 54.7508L89.9625 67.275C89.8282 67.495 89.738 67.741 89.6974 67.9982C89.6568 68.2554 89.6665 68.5185 89.7261 68.7717C89.7857 69.0249 89.8938 69.2629 90.044 69.4715C90.1942 69.68 90.3834 69.8548 90.6002 69.9852C90.817 70.1157 91.0569 70.1991 91.3054 70.2305C91.554 70.262 91.8061 70.2407 92.0466 70.1681C92.287 70.0955 92.5109 69.973 92.7047 69.8079C92.8985 69.6429 93.0583 69.4387 93.1743 69.2078L100.099 56.7415C100.229 56.515 100.312 56.2634 100.345 56.002C100.378 55.7406 100.359 55.4751 100.289 55.2216C100.22 54.9682 100.101 54.7322 99.9406 54.5283C99.7802 54.3243 99.5814 54.1567 99.3565 54.0357Z" fill="white"/>
<path d="M145.51 80.8043C145.4 80.8034 145.293 80.7678 145.204 80.7022C145.114 80.6365 145.046 80.5441 145.008 80.437C144.27 78.414 143.223 76.5279 141.908 74.8514C141.846 74.7577 141.812 74.6464 141.812 74.5325C141.812 74.4185 141.846 74.3073 141.908 74.2136C142.473 73.1933 142.627 71.9811 142.334 70.8433C142.042 69.7054 141.328 68.7348 140.348 68.1447L138.956 67.275V31.9829C138.956 30.4452 138.369 28.9703 137.325 27.883C136.28 26.7956 134.864 26.1847 133.386 26.1847H56.6566C55.1795 26.1847 53.7628 26.7956 52.7184 27.883C51.6739 28.9703 51.0871 30.4452 51.0871 31.9829V80.9589C51.092 82.1517 51.5493 83.2942 52.3594 84.1376C53.1696 84.981 54.267 85.4571 55.4128 85.4622H80.7913L78.9348 92.6134H76.4657C74.6574 92.6147 72.9024 93.2506 71.4842 94.4184C70.0659 95.5863 69.0673 97.2178 68.6497 99.0494H64.0827C63.5903 99.0494 63.1181 99.2531 62.7699 99.6155C62.4218 99.978 62.2262 100.47 62.2262 100.982C62.2262 101.495 62.4218 101.986 62.7699 102.349C63.1181 102.711 63.5903 102.915 64.0827 102.915H111.368C111.337 103.377 111.381 103.841 111.498 104.287C111.637 104.854 111.885 105.386 112.226 105.851C112.568 106.316 112.996 106.704 113.485 106.993L117.402 109.351C117.888 109.642 118.425 109.83 118.981 109.905C119.537 109.979 120.102 109.939 120.643 109.787C121.185 109.634 121.692 109.372 122.136 109.015C122.58 108.659 122.952 108.215 123.231 107.708C123.291 107.61 123.378 107.531 123.48 107.483C123.582 107.435 123.696 107.419 123.807 107.438C125.846 107.805 127.931 107.805 129.97 107.438C130.083 107.419 130.199 107.436 130.302 107.488C130.405 107.54 130.49 107.623 130.546 107.728C130.924 108.402 131.467 108.961 132.119 109.348C132.771 109.734 133.509 109.936 134.259 109.931C135.008 109.938 135.744 109.738 136.394 109.351L140.311 106.993C140.798 106.701 141.224 106.311 141.565 105.847C141.905 105.383 142.155 104.852 142.298 104.287C142.446 103.725 142.484 103.138 142.411 102.561C142.337 101.983 142.154 101.427 141.871 100.924C141.807 100.828 141.773 100.713 141.773 100.596C141.773 100.478 141.807 100.364 141.871 100.267C143.181 98.5947 144.228 96.7157 144.971 94.7007C145.007 94.5921 145.074 94.498 145.164 94.432C145.254 94.366 145.362 94.3315 145.472 94.3335C146.603 94.3284 147.687 93.8585 148.486 93.0259C149.286 92.1933 149.737 91.0656 149.742 89.8882V85.1723C149.723 84.0134 149.27 82.9082 148.479 82.0923C147.688 81.2763 146.623 80.8142 145.51 80.8043ZM54.8001 31.9829C54.8001 31.4704 54.9957 30.9787 55.3439 30.6163C55.692 30.2538 56.1642 30.0502 56.6566 30.0502H133.386C133.879 30.0502 134.351 30.2538 134.699 30.6163C135.047 30.9787 135.243 31.4704 135.243 31.9829V37.7812H54.8001V31.9829ZM55.4128 81.5967C55.3323 81.5967 55.2526 81.5802 55.1783 81.5481C55.104 81.5161 55.0364 81.4691 54.9795 81.4099C54.9227 81.3507 54.8775 81.2803 54.8467 81.203C54.8159 81.1256 54.8001 81.0426 54.8001 80.9589V41.6467H135.243V65.3422C134.364 65.0993 133.434 65.156 132.589 65.5038C131.744 65.8517 131.028 66.4724 130.546 67.275C130.488 67.3703 130.404 67.4453 130.305 67.4901C130.205 67.535 130.095 67.5475 129.989 67.5263C127.948 67.1782 125.866 67.1782 123.825 67.5263C123.719 67.5504 123.608 67.5391 123.508 67.494C123.408 67.449 123.324 67.3723 123.268 67.275C122.99 66.7683 122.617 66.3241 122.173 65.9679C121.728 65.6118 121.22 65.3507 120.678 65.1998C120.136 65.0489 119.571 65.0111 119.015 65.0886C118.459 65.1662 117.924 65.3574 117.439 65.6515L113.522 68.0094C113.034 68.2951 112.607 68.6802 112.265 69.1418C111.924 69.6035 111.676 70.1321 111.535 70.696C111.238 71.8354 111.385 73.0508 111.944 74.0783C112.011 74.1696 112.048 74.2818 112.048 74.3972C112.048 74.5126 112.011 74.6247 111.944 74.7161C110.629 76.3926 109.582 78.2787 108.843 80.3018C108.806 80.4088 108.737 80.5013 108.648 80.5669C108.558 80.6325 108.452 80.6681 108.342 80.669C107.433 80.6703 106.548 80.9752 105.817 81.5387L55.4128 81.5967ZM104.926 92.6134H82.6479L84.5044 85.4622H103.998V89.8882C104.01 90.8784 104.336 91.8366 104.926 92.6134ZM76.4842 96.4789H109.53C109.955 97.3699 110.438 98.2289 110.978 99.0494H72.567C72.9175 98.2815 73.4696 97.6326 74.1595 97.1777C74.8495 96.7228 75.649 96.4805 76.4657 96.4789H76.4842ZM146.066 89.8882C146.066 90.042 146.008 90.1895 145.903 90.2982C145.799 90.4069 145.657 90.468 145.51 90.468C144.645 90.4703 143.801 90.7446 143.089 91.2551C142.376 91.7656 141.829 92.4883 141.518 93.3285C140.925 94.958 140.085 96.4783 139.03 97.8318C138.487 98.531 138.158 99.3849 138.089 100.282C138.019 101.178 138.212 102.076 138.64 102.857C138.67 102.924 138.686 102.996 138.686 103.07C138.686 103.143 138.67 103.216 138.64 103.282C138.624 103.359 138.593 103.431 138.548 103.495C138.503 103.558 138.446 103.611 138.381 103.649L134.519 105.93C134.454 105.967 134.383 105.991 134.31 106C134.237 106.008 134.163 106.001 134.092 105.98C134.021 105.958 133.955 105.922 133.898 105.874C133.84 105.825 133.793 105.766 133.758 105.698C133.319 104.919 132.663 104.297 131.878 103.914C131.092 103.531 130.214 103.405 129.358 103.553C127.723 103.843 126.054 103.843 124.419 103.553C123.562 103.407 122.682 103.536 121.896 103.922C121.11 104.309 120.456 104.935 120.02 105.717C119.942 105.847 119.821 105.941 119.679 105.981C119.538 106.02 119.387 106.002 119.258 105.93L115.341 103.572C115.275 103.533 115.218 103.48 115.174 103.417C115.129 103.354 115.097 103.282 115.081 103.205C115.051 103.138 115.036 103.066 115.036 102.992C115.036 102.919 115.051 102.846 115.081 102.78C115.505 101.997 115.695 101.1 115.625 100.205C115.556 99.3095 115.23 98.4561 114.691 97.7545C113.627 96.4044 112.781 94.8836 112.185 93.2512C111.874 92.4331 111.334 91.7309 110.636 91.2348C109.938 90.7388 109.113 90.4717 108.268 90.468C108.12 90.468 107.978 90.4069 107.874 90.2982C107.77 90.1895 107.711 90.042 107.711 89.8882V85.1723C107.708 85.0954 107.721 85.0188 107.748 84.9472C107.775 84.8757 107.816 84.8107 107.868 84.7563C107.92 84.7019 107.983 84.6593 108.052 84.6311C108.12 84.6029 108.194 84.5898 108.268 84.5925C109.13 84.589 109.971 84.3139 110.68 83.8033C111.389 83.2927 111.933 82.5706 112.241 81.732C112.832 80.0975 113.679 78.5759 114.747 77.2287C115.286 76.5271 115.611 75.6737 115.681 74.7782C115.75 73.8827 115.561 72.9861 115.137 72.2035C115.107 72.1336 115.091 72.0579 115.091 71.9813C115.091 71.9046 115.107 71.8289 115.137 71.759C115.152 71.6842 115.183 71.6141 115.228 71.5538C115.273 71.4935 115.331 71.4447 115.397 71.4111L119.314 69.0531C119.405 69.0268 119.501 69.0268 119.593 69.0531C119.685 69.0543 119.777 69.0798 119.858 69.127C119.939 69.1743 120.007 69.2419 120.057 69.3237C120.495 70.1043 121.15 70.7287 121.935 71.115C122.72 71.5013 123.599 71.6315 124.457 71.4884C126.091 71.1986 127.761 71.1986 129.395 71.4884C130.258 71.6098 131.136 71.457 131.915 71.0501C132.693 70.6431 133.336 70.001 133.758 69.2077C133.794 69.144 133.842 69.0884 133.899 69.0441C133.956 68.9998 134.021 68.9678 134.09 68.9498C134.159 68.9318 134.231 68.9283 134.302 68.9394C134.372 68.9505 134.44 68.976 134.5 69.0145L138.418 71.3724C138.483 71.406 138.541 71.4548 138.586 71.5151C138.631 71.5754 138.662 71.6456 138.678 71.7203C138.708 71.7902 138.723 71.866 138.723 71.9426C138.723 72.0192 138.708 72.095 138.678 72.1649C138.25 72.9429 138.059 73.8373 138.128 74.7306C138.198 75.6239 138.525 76.4745 139.067 77.1707C140.122 78.531 140.962 80.0577 141.555 81.6933C141.848 82.5476 142.382 83.2894 143.088 83.8208C143.794 84.3522 144.639 84.6482 145.51 84.6698C145.583 84.6671 145.657 84.6802 145.726 84.7084C145.794 84.7366 145.857 84.7792 145.909 84.8336C145.961 84.888 146.002 84.953 146.029 85.0245C146.056 85.0961 146.069 85.1727 146.066 85.2496V89.8882Z" fill="white"/>
<path d="M126.889 78.7556C125.222 78.7556 123.592 79.2702 122.206 80.2344C120.82 81.1985 119.74 82.569 119.102 84.1723C118.464 85.7757 118.297 87.54 118.622 89.2421C118.947 90.9442 119.75 92.5077 120.929 93.7349C122.108 94.9621 123.609 95.7978 125.244 96.1364C126.879 96.4749 128.574 96.3012 130.114 95.637C131.654 94.9729 132.971 93.8482 133.897 92.4052C134.823 90.9622 135.317 89.2657 135.317 87.5303C135.317 85.2031 134.429 82.9712 132.849 81.3256C131.268 79.68 129.124 78.7556 126.889 78.7556ZM126.889 92.4394C125.956 92.4394 125.044 92.1515 124.269 91.6121C123.493 91.0727 122.889 90.306 122.532 89.4089C122.175 88.5119 122.082 87.5248 122.264 86.5725C122.446 85.6202 122.895 84.7455 123.554 84.0589C124.214 83.3724 125.054 82.9048 125.969 82.7154C126.883 82.526 127.832 82.6232 128.693 82.9948C129.555 83.3663 130.291 83.9955 130.809 84.8029C131.328 85.6102 131.604 86.5593 131.604 87.5303C131.594 88.8255 131.093 90.0643 130.21 90.9766C129.327 91.8889 128.133 92.4008 126.889 92.4008V92.4394Z" fill="white"/>
</svg>
