<svg width="196" height="123" viewBox="0 0 196 123" fill="none" xmlns="http://www.w3.org/2000/svg">
<path fill-rule="evenodd" clip-rule="evenodd" d="M151.087 97.8028H44.913C43.5786 97.8028 42.5 96.8117 42.5 95.5854V33.4985C42.5 32.2745 43.5786 31.2811 44.913 31.2811H151.087C152.421 31.2811 153.5 32.2745 153.5 33.4985V95.5854C153.5 96.8117 152.421 97.8028 151.087 97.8028ZM148.674 35.7159H47.3261V93.3681H148.674V35.7159ZM90.7609 51.2376C91.2773 51.2376 91.7261 51.4194 92.1194 51.6722L110.871 62.4754C111.803 62.7791 112.478 63.5796 112.478 64.542C112.478 65.2626 112.08 65.8746 111.501 66.2782L92.2594 77.323C91.8443 77.6334 91.3352 77.8463 90.7609 77.8463C89.4265 77.8463 88.3478 76.8551 88.3478 75.6289V53.455C88.3478 52.231 89.4265 51.2376 90.7609 51.2376ZM76.2826 102.238H119.717C121.052 102.238 122.13 103.229 122.13 104.455C122.13 105.681 121.052 106.672 119.717 106.672H76.2826C74.9482 106.672 73.8696 105.681 73.8696 104.455C73.8696 103.229 74.9482 102.238 76.2826 102.238Z" fill="white"/>
</svg>
