<svg width="195" height="121" viewBox="0 0 195 121" fill="none" xmlns="http://www.w3.org/2000/svg">
<path d="M137.666 23.6373H57.3341C55.1148 23.6373 52.9864 24.5189 51.4171 26.0882C49.8479 27.6575 48.9662 29.7859 48.9662 32.0052V98.9483C48.9662 101.168 49.8479 103.296 51.4171 104.865C52.9864 106.435 55.1148 107.316 57.3341 107.316H137.666C139.885 107.316 142.014 106.435 143.583 104.865C145.152 103.296 146.034 101.168 146.034 98.9483V32.0052C146.034 29.7859 145.152 27.6575 143.583 26.0882C142.014 24.5189 139.885 23.6373 137.666 23.6373ZM142.687 98.9483C142.687 100.28 142.158 101.557 141.216 102.498C140.274 103.44 138.997 103.969 137.666 103.969H57.3341C56.0026 103.969 54.7255 103.44 53.7839 102.498C52.8424 101.557 52.3134 100.28 52.3134 98.9483V40.3731H142.687V98.9483ZM52.3134 37.0259V32.0052C52.3134 30.6736 52.8424 29.3966 53.7839 28.455C54.7255 27.5135 56.0026 26.9845 57.3341 26.9845H137.666C138.997 26.9845 140.274 27.5135 141.216 28.455C142.158 29.3966 142.687 30.6736 142.687 32.0052V37.0259H52.3134ZM135.992 32.0052C135.992 32.3362 135.894 32.6598 135.71 32.935C135.526 33.2102 135.265 33.4247 134.959 33.5514C134.653 33.6781 134.317 33.7112 133.992 33.6466C133.668 33.5821 133.369 33.4227 133.135 33.1886C132.901 32.9546 132.742 32.6564 132.677 32.3317C132.613 32.0071 132.646 31.6706 132.773 31.3648C132.899 31.059 133.114 30.7976 133.389 30.6137C133.664 30.4298 133.988 30.3316 134.319 30.3316C134.763 30.3316 135.188 30.508 135.502 30.8218C135.816 31.1357 135.992 31.5614 135.992 32.0052ZM130.972 32.0052C130.972 32.3362 130.873 32.6598 130.689 32.935C130.506 33.2102 130.244 33.4247 129.938 33.5514C129.633 33.6781 129.296 33.7112 128.971 33.6466C128.647 33.5821 128.349 33.4227 128.115 33.1886C127.881 32.9546 127.721 32.6564 127.657 32.3317C127.592 32.0071 127.625 31.6706 127.752 31.3648C127.878 31.059 128.093 30.7976 128.368 30.6137C128.643 30.4298 128.967 30.3316 129.298 30.3316C129.742 30.3316 130.168 30.508 130.481 30.8218C130.795 31.1357 130.972 31.5614 130.972 32.0052ZM125.951 32.0052C125.951 32.3362 125.853 32.6598 125.669 32.935C125.485 33.2102 125.223 33.4247 124.918 33.5514C124.612 33.6781 124.275 33.7112 123.951 33.6466C123.626 33.5821 123.328 33.4227 123.094 33.1886C122.86 32.9546 122.7 32.6564 122.636 32.3317C122.571 32.0071 122.604 31.6706 122.731 31.3648C122.858 31.059 123.072 30.7976 123.347 30.6137C123.623 30.4298 123.946 30.3316 124.277 30.3316C124.721 30.3316 125.147 30.508 125.461 30.8218C125.774 31.1357 125.951 31.5614 125.951 32.0052ZM100.847 60.456H134.319C134.763 60.456 135.188 60.2797 135.502 59.9659C135.816 59.652 135.992 59.2263 135.992 58.7825V45.3938C135.992 44.95 135.816 44.5243 135.502 44.2104C135.188 43.8966 134.763 43.7203 134.319 43.7203H100.847C100.403 43.7203 99.9776 43.8966 99.6637 44.2104C99.3499 44.5243 99.1736 44.95 99.1736 45.3938V58.7825C99.1736 59.2263 99.3499 59.652 99.6637 59.9659C99.9776 60.2797 100.403 60.456 100.847 60.456ZM102.521 47.0674H132.645V57.1089H102.521V47.0674ZM60.6813 100.622H94.1528C94.5967 100.622 95.0224 100.446 95.3362 100.132C95.6501 99.8178 95.8264 99.3922 95.8264 98.9483V65.4768C95.8264 65.0329 95.6501 64.6072 95.3362 64.2934C95.0224 63.9795 94.5967 63.8032 94.1528 63.8032H60.6813C60.2374 63.8032 59.8117 63.9795 59.4979 64.2934C59.184 64.6072 59.0077 65.0329 59.0077 65.4768V98.9483C59.0077 99.3922 59.184 99.8178 59.4979 100.132C59.8117 100.446 60.2374 100.622 60.6813 100.622ZM62.3549 67.1503H92.4793V97.2747H62.3549V67.1503ZM59.0077 48.741C59.0077 48.2971 59.184 47.8714 59.4979 47.5576C59.8117 47.2437 60.2374 47.0674 60.6813 47.0674H94.1528C94.5967 47.0674 95.0224 47.2437 95.3362 47.5576C95.6501 47.8714 95.8264 48.2971 95.8264 48.741C95.8264 49.1848 95.6501 49.6105 95.3362 49.9244C95.0224 50.2382 94.5967 50.4146 94.1528 50.4146H60.6813C60.2374 50.4146 59.8117 50.2382 59.4979 49.9244C59.184 49.6105 59.0077 49.1848 59.0077 48.741ZM59.0077 55.4353C59.0077 54.9914 59.184 54.5658 59.4979 54.2519C59.8117 53.938 60.2374 53.7617 60.6813 53.7617H94.1528C94.5967 53.7617 95.0224 53.938 95.3362 54.2519C95.6501 54.5658 95.8264 54.9914 95.8264 55.4353C95.8264 55.8792 95.6501 56.3048 95.3362 56.6187C95.0224 56.9326 94.5967 57.1089 94.1528 57.1089H60.6813C60.2374 57.1089 59.8117 56.9326 59.4979 56.6187C59.184 56.3048 59.0077 55.8792 59.0077 55.4353ZM99.1736 68.8239C99.1736 68.3801 99.3499 67.9544 99.6637 67.6405C99.9776 67.3267 100.403 67.1503 100.847 67.1503H134.319C134.763 67.1503 135.188 67.3267 135.502 67.6405C135.816 67.9544 135.992 68.3801 135.992 68.8239C135.992 69.2678 135.816 69.6935 135.502 70.0073C135.188 70.3212 134.763 70.4975 134.319 70.4975H100.847C100.403 70.4975 99.9776 70.3212 99.6637 70.0073C99.3499 69.6935 99.1736 69.2678 99.1736 68.8239ZM99.1736 75.5182C99.1736 75.0744 99.3499 74.6487 99.6637 74.3348C99.9776 74.021 100.403 73.8447 100.847 73.8447H134.319C134.763 73.8447 135.188 74.021 135.502 74.3348C135.816 74.6487 135.992 75.0744 135.992 75.5182C135.992 75.9621 135.816 76.3878 135.502 76.7016C135.188 77.0155 134.763 77.1918 134.319 77.1918H100.847C100.403 77.1918 99.9776 77.0155 99.6637 76.7016C99.3499 76.3878 99.1736 75.9621 99.1736 75.5182ZM99.1736 82.2125C99.1736 81.7687 99.3499 81.343 99.6637 81.0291C99.9776 80.7153 100.403 80.539 100.847 80.539H134.319C134.763 80.539 135.188 80.7153 135.502 81.0291C135.816 81.343 135.992 81.7687 135.992 82.2125C135.992 82.6564 135.816 83.0821 135.502 83.3959C135.188 83.7098 134.763 83.8861 134.319 83.8861H100.847C100.403 83.8861 99.9776 83.7098 99.6637 83.3959C99.3499 83.0821 99.1736 82.6564 99.1736 82.2125ZM99.1736 88.9068C99.1736 88.463 99.3499 88.0373 99.6637 87.7234C99.9776 87.4096 100.403 87.2333 100.847 87.2333H134.319C134.763 87.2333 135.188 87.4096 135.502 87.7234C135.816 88.0373 135.992 88.463 135.992 88.9068C135.992 89.3507 135.816 89.7764 135.502 90.0902C135.188 90.4041 134.763 90.5804 134.319 90.5804H100.847C100.403 90.5804 99.9776 90.4041 99.6637 90.0902C99.3499 89.7764 99.1736 89.3507 99.1736 88.9068ZM99.1736 95.6012C99.1736 95.1573 99.3499 94.7316 99.6637 94.4178C99.9776 94.1039 100.403 93.9276 100.847 93.9276H134.319C134.763 93.9276 135.188 94.1039 135.502 94.4178C135.816 94.7316 135.992 95.1573 135.992 95.6012C135.992 96.045 135.816 96.4707 135.502 96.7846C135.188 97.0984 134.763 97.2747 134.319 97.2747H100.847C100.403 97.2747 99.9776 97.0984 99.6637 96.7846C99.3499 96.4707 99.1736 96.045 99.1736 95.6012Z" fill="white"/>
</svg>
